# Blender v2.79 (sub 0) OBJ File: ''
# www.blender.org
mtllib board.mtl
o Cube
v 1.000000 -0.221396 -1.000000
v 1.000000 -0.221396 1.000000
v -1.000000 -0.221396 1.000000
v -1.000000 -0.221396 -1.000000
v 1.000000 0.153709 -0.999999
v 0.999999 0.153709 1.000001
v -1.000000 0.153709 1.000000
v -1.000000 0.153709 -1.000000
v 0.734741 0.153709 -0.734741
v 0.734741 0.153709 0.734742
v -0.734741 0.153709 0.734741
v -0.734741 0.153709 -0.734741
v 0.734741 -0.066492 -0.734741
v 0.734741 -0.066492 0.734742
v -0.734741 -0.066492 0.734741
v -0.734741 -0.066492 -0.734741
vt 1.000000 0.000000
vt 0.000000 1.000000
vt 0.000000 0.000000
vt 1.000000 0.000000
vt 1.000000 1.000000
vt 1.000000 1.000000
vt 1.000000 0.000000
vt 0.000000 1.000000
vt 1.000000 0.000000
vt 0.000000 1.000000
vt 0.000000 0.000000
vt 0.000000 0.000000
vt 1.000000 0.000000
vt 0.000000 1.000000
vt 0.000000 0.000000
vt 1.000000 0.000000
vt 1.000000 1.000000
vt 0.000000 0.000000
vt 1.000000 1.000000
vt 1.000000 0.000000
vt 1.000000 1.000000
vt 1.000000 1.000000
vt 1.000000 1.000000
vt 0.000000 0.000000
vt 1.000000 1.000000
vt 0.000000 1.000000
vt 0.000000 1.000000
vt 1.000000 0.000000
vt 1.000000 1.000000
vt 1.000000 1.000000
vt 1.000000 1.000000
vt 1.000000 0.000000
vt 1.000000 0.000000
vt 0.000000 1.000000
vt 1.000000 0.000000
vt 1.000000 0.000000
vn 0.0000 -1.0000 0.0000
vn 0.0000 1.0000 0.0000
vn 1.0000 -0.0000 0.0000
vn 0.0000 -0.0000 1.0000
vn -1.0000 -0.0000 -0.0000
vn 0.0000 0.0000 -1.0000
usemtl Material
s off
f 2/1/1 4/2/1 1/3/1
f 7/4/2 12/5/2 8/6/2
f 5/7/3 2/8/3 1/3/3
f 6/9/4 3/10/4 2/11/4
f 7/4/5 4/2/5 3/12/5
f 1/13/6 8/14/6 5/15/6
f 11/16/3 16/17/3 12/5/3
f 8/14/2 9/18/2 5/15/2
f 7/19/2 10/20/2 11/21/2
f 5/7/2 10/22/2 6/23/2
f 13/24/2 15/25/2 14/26/2
f 12/27/4 13/24/4 9/18/4
f 10/20/6 15/25/6 11/21/6
f 9/28/5 14/29/5 10/22/5
f 2/1/1 3/30/1 4/2/1
f 7/4/2 11/16/2 12/5/2
f 5/7/3 6/23/3 2/8/3
f 6/9/4 7/19/4 3/10/4
f 7/4/5 8/6/5 4/2/5
f 1/13/6 4/31/6 8/14/6
f 11/16/3 15/32/3 16/17/3
f 8/14/2 12/27/2 9/18/2
f 7/19/2 6/9/2 10/20/2
f 5/7/2 9/28/2 10/22/2
f 13/24/2 16/33/2 15/25/2
f 12/27/4 16/34/4 13/24/4
f 10/20/6 14/35/6 15/25/6
f 9/28/5 13/36/5 14/29/5
