# Blender v2.79 (sub 0) OBJ File: 'model.blend'
# www.blender.org
mtllib board.mtl
o Cube
v 3.855221 -0.009160 -6.140760
v 3.855221 -0.009160 6.365518
v -3.603320 -0.009160 6.365517
v -3.603318 -0.009160 -6.140763
v 3.855222 1.990839 -6.140758
v 3.855218 1.990839 6.365522
v -3.603321 1.990839 6.365516
v -3.603319 1.990839 -6.140761
v 3.855222 0.009320 -6.140758
v 3.855218 0.009320 6.365522
v -3.603319 0.009320 -6.140761
v -3.603321 0.009320 6.365516
vt 0.000100 0.999900
vt 0.999900 0.000100
vt 0.999900 0.999900
vt 0.000100 0.000100
vt 0.000100 0.999900
vt 0.999899 0.000100
vt 0.999900 0.999899
vt 0.000100 0.000100
vt 0.250035 0.000071
vt 0.000071 0.250035
vt 0.000071 0.000071
vt 0.250036 0.500000
vt 0.000071 0.500000
vt 0.250036 0.749965
vt 0.497691 0.999929
vt 0.250036 0.999929
vt 0.250035 0.250035
vt 0.497691 0.500000
vt 0.497691 0.749965
vt 0.497691 0.250035
vt 0.000000 0.000000
vt 0.000000 0.000000
vt 0.000000 0.000000
vt 0.000000 0.000000
vt 0.000000 0.000000
vt 0.000000 0.000000
vt 0.000000 0.000000
vt 0.000000 0.000000
vt 0.000000 0.000000
vn 0.0000 -1.0000 0.0000
vn 0.0000 1.0000 -0.0000
vn -0.0000 -0.0000 1.0000
vn -1.0000 -0.0000 -0.0000
vn 1.0000 0.0000 0.0000
vn 0.0000 0.0000 -1.0000
usemtl Material
s off
f 2/1/1 4/2/1 1/3/1
f 2/1/1 3/4/1 4/2/1
usemtl Material_floor.jpg
f 11/5/2 10/6/2 9/7/2
f 11/5/2 12/8/2 10/6/2
usemtl Material_sides.jpeg
f 6/9/3 3/10/3 2/11/3
f 3/10/4 8/12/4 4/13/4
f 5/14/4 10/15/4 6/16/4
f 7/17/5 11/18/5 8/12/5
f 8/12/3 9/19/3 5/14/3
f 6/9/3 7/17/3 3/10/3
f 3/10/4 7/17/4 8/12/4
f 5/14/4 9/19/4 10/15/4
f 7/17/5 12/20/5 11/18/5
f 8/12/3 11/18/3 9/19/3
usemtl Material_NONE
f 6/21/6 12/22/6 7/23/6
f 5/24/5 2/25/5 1/26/5
f 1/26/6 8/27/6 5/24/6
f 6/21/6 10/28/6 12/22/6
f 5/24/5 6/21/5 2/25/5
f 1/26/6 4/29/6 8/27/6
