# Blender v2.79 (sub 0) OBJ File: 'box.blend'
# www.blender.org
mtllib box.mtl
o Cube
v -2.502376 -0.316417 -1.075167
v -2.502376 -0.316417 1.075167
v 2.502376 -0.316417 1.075167
v 2.502375 -0.316417 -1.075168
v -2.502377 0.316417 -1.075167
v -2.502374 0.316417 1.075168
v 2.502377 0.316417 1.075167
v 2.502376 0.316417 -1.075167
v -2.414603 0.316417 -1.037454
v -2.414601 0.316417 1.037455
v 2.414602 0.316417 -1.037455
v 2.414603 0.316417 1.037454
v -2.414603 -0.275382 -1.037454
v -2.414601 -0.275382 1.037455
v 2.414602 -0.275382 -1.037455
v 2.414603 -0.275382 1.037454
vn 0.0000 1.0000 -0.0000
vn -0.0000 0.0000 -1.0000
vn 1.0000 0.0000 -0.0000
vn -1.0000 0.0000 0.0000
vn 0.0000 0.0000 1.0000
vn 0.0000 -1.0000 0.0000
usemtl Material
s off
f 6//1 7//1 12//1
f 10//2 12//2 16//2
f 5//1 6//1 10//1
f 7//1 8//1 11//1
f 8//1 5//1 9//1
f 9//3 10//3 14//3
f 12//4 11//4 15//4
f 11//5 9//5 13//5
f 6//1 12//1 10//1
f 10//2 16//2 14//2
f 5//1 10//1 9//1
f 7//1 11//1 12//1
f 8//1 9//1 11//1
f 9//3 14//3 13//3
f 12//4 15//4 16//4
f 11//5 13//5 15//5
usemtl Material.002
f 2//6 1//6 4//6
f 5//4 1//4 2//4
f 6//5 2//5 3//5
f 3//3 4//3 8//3
f 1//2 5//2 8//2
f 2//6 4//6 3//6
f 5//4 2//4 6//4
f 6//5 3//5 7//5
f 3//3 8//3 7//3
f 1//2 8//2 4//2
usemtl Material.001
f 15//1 13//1 14//1
f 15//1 14//1 16//1
