# Blender v2.79 (sub 0) OBJ File: ''
# www.blender.org
mtllib cylinder.mtl
o Cylinder
v 0.000000 0.073026 0.000000
v 0.000000 2.073026 0.000000
v 0.000000 0.073026 -1.000000
v 0.000000 2.073026 -1.000000
v 0.195090 0.073026 -0.980785
v 0.195090 2.073026 -0.980785
v 0.382683 0.073026 -0.923880
v 0.382683 2.073026 -0.923880
v 0.555570 0.073026 -0.831470
v 0.555570 2.073026 -0.831470
v 0.707107 0.073026 -0.707107
v 0.707107 2.073026 -0.707107
v 0.831470 0.073026 -0.555570
v 0.831470 2.073026 -0.555570
v 0.923880 0.073026 -0.382683
v 0.923880 2.073026 -0.382683
v 0.980785 0.073026 -0.195090
v 0.980785 2.073026 -0.195090
v 1.000000 0.073026 -0.000000
v 1.000000 2.073026 -0.000000
v 0.980785 0.073026 0.195090
v 0.980785 2.073026 0.195090
v 0.923880 0.073026 0.382683
v 0.923880 2.073026 0.382683
v 0.831470 0.073026 0.555570
v 0.831470 2.073026 0.555570
v 0.707107 0.073026 0.707107
v 0.707107 2.073026 0.707107
v 0.555570 0.073026 0.831470
v 0.555570 2.073026 0.831470
v 0.382683 0.073026 0.923880
v 0.382683 2.073026 0.923880
v 0.195090 0.073026 0.980785
v 0.195090 2.073026 0.980785
v -0.000000 0.073026 1.000000
v -0.000000 2.073026 1.000000
v -0.195091 0.073026 0.980785
v -0.195091 2.073026 0.980785
v -0.382684 0.073026 0.923879
v -0.382684 2.073026 0.923879
v -0.555571 0.073026 0.831469
v -0.555571 2.073026 0.831469
v -0.707107 0.073026 0.707106
v -0.707107 2.073026 0.707106
v -0.831470 0.073026 0.555570
v -0.831470 2.073026 0.555570
v -0.923880 0.073026 0.382683
v -0.923880 2.073026 0.382683
v -0.980785 0.073026 0.195089
v -0.980785 2.073026 0.195089
v -1.000000 0.073026 -0.000001
v -1.000000 2.073026 -0.000001
v -0.980785 0.073026 -0.195091
v -0.980785 2.073026 -0.195091
v -0.923879 0.073026 -0.382684
v -0.923879 2.073026 -0.382684
v -0.831469 0.073026 -0.555571
v -0.831469 2.073026 -0.555571
v -0.707106 0.073026 -0.707108
v -0.707106 2.073026 -0.707108
v -0.555569 0.073026 -0.831470
v -0.555569 2.073026 -0.831470
v -0.382682 0.073026 -0.923880
v -0.382682 2.073026 -0.923880
v -0.195089 0.073026 -0.980786
v -0.195089 2.073026 -0.980786
vt 0.000000 0.000000
vt 0.000000 0.000000
vt 0.000000 0.000000
vt 0.500000 0.500000
vt 0.500393 0.502668
vt 0.499864 0.502694
vt 0.549235 0.999900
vt 0.450763 0.999900
vt 0.000000 0.000000
vt 0.500906 0.502540
vt 0.645815 0.980689
vt 0.000000 0.000000
vt 0.501384 0.502315
vt 0.736791 0.943006
vt 0.000000 0.000000
vt 0.501809 0.502001
vt 0.818667 0.888298
vt 0.000000 0.000000
vt 0.502164 0.501609
vt 0.888297 0.818668
vt 0.000000 0.000000
vt 0.502437 0.501156
vt 0.943005 0.736792
vt 0.000000 0.000000
vt 0.502615 0.500658
vt 0.980689 0.645816
vt 0.000000 0.000000
vt 0.502694 0.500136
vt 0.999900 0.549236
vt 0.000000 0.000000
vt 0.502668 0.499607
vt 0.999900 0.450765
vt 0.000000 0.000000
vt 0.502540 0.499094
vt 0.980689 0.354185
vt 0.000000 0.000000
vt 0.502315 0.498616
vt 0.943006 0.263209
vt 0.000000 0.000000
vt 0.502001 0.498191
vt 0.888298 0.181333
vt 0.000000 0.000000
vt 0.501609 0.497836
vt 0.818668 0.111703
vt 0.000000 0.000000
vt 0.501156 0.497563
vt 0.736792 0.056995
vt 0.000000 0.000000
vt 0.500658 0.497385
vt 0.645816 0.019311
vt 0.000000 0.000000
vt 0.500136 0.497306
vt 0.549236 0.000100
vt 0.000000 0.000000
vt 0.499608 0.497332
vt 0.450764 0.000100
vt 0.000000 0.000000
vt 0.499095 0.497460
vt 0.354185 0.019311
vt 0.000000 0.000000
vt 0.498616 0.497685
vt 0.263209 0.056994
vt 0.000000 0.000000
vt 0.498191 0.497999
vt 0.181332 0.111702
vt 0.000000 0.000000
vt 0.497836 0.498391
vt 0.111702 0.181332
vt 0.000000 0.000000
vt 0.497563 0.498844
vt 0.056994 0.263209
vt 0.000000 0.000000
vt 0.497385 0.499341
vt 0.019311 0.354185
vt 0.000000 0.000000
vt 0.497306 0.499864
vt 0.000100 0.450764
vt 0.000000 0.000000
vt 0.497332 0.500392
vt 0.000100 0.549236
vt 0.000000 0.000000
vt 0.497460 0.500906
vt 0.019311 0.645816
vt 0.000000 0.000000
vt 0.497685 0.501384
vt 0.056995 0.736792
vt 0.000000 0.000000
vt 0.497999 0.501809
vt 0.111703 0.818668
vt 0.000000 0.000000
vt 0.498391 0.502164
vt 0.181333 0.888298
vt 0.000000 0.000000
vt 0.498844 0.502437
vt 0.263209 0.943006
vt 0.000000 0.000000
vt 0.499342 0.502615
vt 0.354185 0.980689
vn 0.0000 -1.0000 0.0000
vn 0.0000 1.0000 0.0000
vn 0.0980 0.0000 -0.9952
vn 0.2903 0.0000 -0.9569
vn 0.4714 0.0000 -0.8819
vn 0.6344 0.0000 -0.7730
vn 0.7730 0.0000 -0.6344
vn 0.8819 0.0000 -0.4714
vn 0.9569 0.0000 -0.2903
vn 0.9952 0.0000 -0.0980
vn 0.9952 0.0000 0.0980
vn 0.9569 0.0000 0.2903
vn 0.8819 0.0000 0.4714
vn 0.7730 0.0000 0.6344
vn 0.6344 0.0000 0.7730
vn 0.4714 0.0000 0.8819
vn 0.2903 0.0000 0.9569
vn 0.0980 0.0000 0.9952
vn -0.0980 0.0000 0.9952
vn -0.2903 0.0000 0.9569
vn -0.4714 0.0000 0.8819
vn -0.6344 0.0000 0.7730
vn -0.7730 0.0000 0.6344
vn -0.8819 0.0000 0.4714
vn -0.9569 0.0000 0.2903
vn -0.9952 0.0000 0.0980
vn -0.9952 0.0000 -0.0980
vn -0.9569 0.0000 -0.2903
vn -0.8819 0.0000 -0.4714
vn -0.7730 0.0000 -0.6344
vn -0.6344 0.0000 -0.7730
vn -0.4714 0.0000 -0.8819
vn -0.2903 0.0000 -0.9569
vn -0.0980 0.0000 -0.9952
usemtl None
s off
f 1/1/1 3/2/1 5/3/1
f 2/4/2 6/5/2 4/6/2
f 4/6/3 5/7/3 3/8/3
f 1/1/1 5/3/1 7/9/1
f 2/4/2 8/10/2 6/5/2
f 6/5/4 7/11/4 5/7/4
f 1/1/1 7/9/1 9/12/1
f 2/4/2 10/13/2 8/10/2
f 8/10/5 9/14/5 7/11/5
f 1/1/1 9/12/1 11/15/1
f 2/4/2 12/16/2 10/13/2
f 10/13/6 11/17/6 9/14/6
f 1/1/1 11/15/1 13/18/1
f 2/4/2 14/19/2 12/16/2
f 12/16/7 13/20/7 11/17/7
f 1/1/1 13/18/1 15/21/1
f 2/4/2 16/22/2 14/19/2
f 14/19/8 15/23/8 13/20/8
f 1/1/1 15/21/1 17/24/1
f 2/4/2 18/25/2 16/22/2
f 16/22/9 17/26/9 15/23/9
f 1/1/1 17/24/1 19/27/1
f 2/4/2 20/28/2 18/25/2
f 18/25/10 19/29/10 17/26/10
f 1/1/1 19/27/1 21/30/1
f 2/4/2 22/31/2 20/28/2
f 20/28/11 21/32/11 19/29/11
f 1/1/1 21/30/1 23/33/1
f 2/4/2 24/34/2 22/31/2
f 22/31/12 23/35/12 21/32/12
f 1/1/1 23/33/1 25/36/1
f 2/4/2 26/37/2 24/34/2
f 24/34/13 25/38/13 23/35/13
f 1/1/1 25/36/1 27/39/1
f 2/4/2 28/40/2 26/37/2
f 26/37/14 27/41/14 25/38/14
f 1/1/1 27/39/1 29/42/1
f 2/4/2 30/43/2 28/40/2
f 28/40/15 29/44/15 27/41/15
f 1/1/1 29/42/1 31/45/1
f 2/4/2 32/46/2 30/43/2
f 30/43/16 31/47/16 29/44/16
f 1/1/1 31/45/1 33/48/1
f 2/4/2 34/49/2 32/46/2
f 32/46/17 33/50/17 31/47/17
f 1/1/1 33/48/1 35/51/1
f 2/4/2 36/52/2 34/49/2
f 34/49/18 35/53/18 33/50/18
f 1/1/1 35/51/1 37/54/1
f 2/4/2 38/55/2 36/52/2
f 36/52/19 37/56/19 35/53/19
f 1/1/1 37/54/1 39/57/1
f 2/4/2 40/58/2 38/55/2
f 38/55/20 39/59/20 37/56/20
f 1/1/1 39/57/1 41/60/1
f 2/4/2 42/61/2 40/58/2
f 40/58/21 41/62/21 39/59/21
f 1/1/1 41/60/1 43/63/1
f 2/4/2 44/64/2 42/61/2
f 42/61/22 43/65/22 41/62/22
f 1/1/1 43/63/1 45/66/1
f 2/4/2 46/67/2 44/64/2
f 44/64/23 45/68/23 43/65/23
f 1/1/1 45/66/1 47/69/1
f 2/4/2 48/70/2 46/67/2
f 46/67/24 47/71/24 45/68/24
f 1/1/1 47/69/1 49/72/1
f 2/4/2 50/73/2 48/70/2
f 48/70/25 49/74/25 47/71/25
f 1/1/1 49/72/1 51/75/1
f 2/4/2 52/76/2 50/73/2
f 50/73/26 51/77/26 49/74/26
f 1/1/1 51/75/1 53/78/1
f 2/4/2 54/79/2 52/76/2
f 52/76/27 53/80/27 51/77/27
f 1/1/1 53/78/1 55/81/1
f 2/4/2 56/82/2 54/79/2
f 54/79/28 55/83/28 53/80/28
f 1/1/1 55/81/1 57/84/1
f 2/4/2 58/85/2 56/82/2
f 56/82/29 57/86/29 55/83/29
f 1/1/1 57/84/1 59/87/1
f 2/4/2 60/88/2 58/85/2
f 58/85/30 59/89/30 57/86/30
f 1/1/1 59/87/1 61/90/1
f 2/4/2 62/91/2 60/88/2
f 60/88/31 61/92/31 59/89/31
f 1/1/1 61/90/1 63/93/1
f 2/4/2 64/94/2 62/91/2
f 62/91/32 63/95/32 61/92/32
f 1/1/1 63/93/1 65/96/1
f 2/4/2 66/97/2 64/94/2
f 64/94/33 65/98/33 63/95/33
f 1/1/1 65/96/1 3/2/1
f 2/4/2 4/6/2 66/97/2
f 66/97/34 3/8/34 65/98/34
f 4/6/3 6/5/3 5/7/3
f 6/5/4 8/10/4 7/11/4
f 8/10/5 10/13/5 9/14/5
f 10/13/6 12/16/6 11/17/6
f 12/16/7 14/19/7 13/20/7
f 14/19/8 16/22/8 15/23/8
f 16/22/9 18/25/9 17/26/9
f 18/25/10 20/28/10 19/29/10
f 20/28/11 22/31/11 21/32/11
f 22/31/12 24/34/12 23/35/12
f 24/34/13 26/37/13 25/38/13
f 26/37/14 28/40/14 27/41/14
f 28/40/15 30/43/15 29/44/15
f 30/43/16 32/46/16 31/47/16
f 32/46/17 34/49/17 33/50/17
f 34/49/18 36/52/18 35/53/18
f 36/52/19 38/55/19 37/56/19
f 38/55/20 40/58/20 39/59/20
f 40/58/21 42/61/21 41/62/21
f 42/61/22 44/64/22 43/65/22
f 44/64/23 46/67/23 45/68/23
f 46/67/24 48/70/24 47/71/24
f 48/70/25 50/73/25 49/74/25
f 50/73/26 52/76/26 51/77/26
f 52/76/27 54/79/27 53/80/27
f 54/79/28 56/82/28 55/83/28
f 56/82/29 58/85/29 57/86/29
f 58/85/30 60/88/30 59/89/30
f 60/88/31 62/91/31 61/92/31
f 62/91/32 64/94/32 63/95/32
f 64/94/33 66/97/33 65/98/33
f 66/97/34 4/6/34 3/8/34
