# Blender v2.79 (sub 0) OBJ File: 'saturn_rings.blend'
# www.blender.org
mtllib saturn_rings.mtl
o Plane
v -1.000000 0.000000 1.000000
v 1.000000 0.000000 1.000000
v -1.000000 0.000000 -1.000000
v 1.000000 0.000000 -1.000000
v -1.000000 0.000000 -0.857143
v -1.000000 0.000000 -0.714286
v -1.000000 0.000000 -0.571429
v -1.000000 0.000000 -0.428571
v -1.000000 0.000000 -0.285714
v -1.000000 0.000000 -0.142857
v -1.000000 0.000000 -0.000000
v -1.000000 0.000000 0.142857
v -1.000000 0.000000 0.285714
v -1.000000 0.000000 0.428571
v -1.000000 0.000000 0.571429
v -1.000000 0.000000 0.714286
v -1.000000 0.000000 0.857143
v 1.000000 0.000000 0.857143
v 1.000000 0.000000 0.714286
v 1.000000 0.000000 0.571429
v 1.000000 0.000000 0.428571
v 1.000000 0.000000 0.285714
v 1.000000 0.000000 0.142857
v 1.000000 0.000000 0.000000
v 1.000000 0.000000 -0.142857
v 1.000000 0.000000 -0.285714
v 1.000000 0.000000 -0.428571
v 1.000000 0.000000 -0.571429
v 1.000000 0.000000 -0.714286
v 1.000000 0.000000 -0.857143
v -0.857143 0.000000 1.000000
v -0.714286 0.000000 1.000000
v -0.571429 0.000000 1.000000
v -0.428571 0.000000 1.000000
v -0.285714 0.000000 1.000000
v -0.142857 0.000000 1.000000
v -0.000000 0.000000 1.000000
v 0.142857 0.000000 1.000000
v 0.285714 0.000000 1.000000
v 0.428571 0.000000 1.000000
v 0.571429 0.000000 1.000000
v 0.714286 0.000000 1.000000
v 0.857143 0.000000 1.000000
v 0.857143 0.000000 -1.000000
v 0.714286 0.000000 -1.000000
v 0.571429 0.000000 -1.000000
v 0.428571 0.000000 -1.000000
v 0.285714 0.000000 -1.000000
v 0.142857 0.000000 -1.000000
v 0.000000 0.000000 -1.000000
v -0.142857 0.000000 -1.000000
v -0.285714 0.000000 -1.000000
v -0.428571 0.000000 -1.000000
v -0.571429 0.000000 -1.000000
v -0.714286 0.000000 -1.000000
v -0.857143 0.000000 -1.000000
v 0.857143 0.000000 0.857143
v 0.714286 0.000000 0.857143
v 0.571429 0.000000 0.857143
v 0.428571 0.000000 0.857143
v 0.285714 0.000000 0.857143
v 0.142857 0.000000 0.857143
v 0.000000 0.000000 0.857143
v -0.142857 0.000000 0.857143
v -0.285714 0.000000 0.857143
v -0.428571 0.000000 0.857143
v -0.571429 0.000000 0.857143
v -0.714286 0.000000 0.857143
v -0.857143 0.000000 0.857143
v 0.857143 0.000000 0.714286
v 0.714286 0.000000 0.714286
v 0.571429 0.000000 0.714286
v 0.428571 0.000000 0.714286
v 0.285714 0.000000 0.714286
v 0.142857 0.000000 0.714286
v 0.000000 0.000000 0.714286
v -0.142857 0.000000 0.714286
v -0.285714 0.000000 0.714286
v -0.428571 0.000000 0.714286
v -0.571429 0.000000 0.714286
v -0.714286 0.000000 0.714286
v -0.857143 0.000000 0.714286
v 0.857143 0.000000 0.571429
v 0.714286 0.000000 0.571429
v 0.571429 0.000000 0.571429
v 0.428571 0.000000 0.571429
v 0.285714 0.000000 0.571429
v 0.142857 0.000000 0.571429
v 0.000000 0.000000 0.571429
v -0.142857 0.000000 0.571429
v -0.285714 0.000000 0.571429
v -0.428571 0.000000 0.571429
v -0.571429 0.000000 0.571429
v -0.714286 0.000000 0.571429
v -0.857143 0.000000 0.571429
v 0.857143 0.000000 0.428571
v 0.714286 0.000000 0.428571
v 0.571429 0.000000 0.428571
v 0.428571 0.000000 0.428571
v 0.285714 0.000000 0.428571
v 0.142857 0.000000 0.428571
v 0.000000 0.000000 0.428571
v -0.142857 0.000000 0.428571
v -0.285714 0.000000 0.428571
v -0.428571 0.000000 0.428571
v -0.571429 0.000000 0.428571
v -0.714286 0.000000 0.428571
v -0.857143 0.000000 0.428571
v 0.857143 0.000000 0.285714
v 0.714286 0.000000 0.285714
v 0.571429 0.000000 0.285714
v 0.428571 0.000000 0.285714
v 0.285714 0.000000 0.285714
v 0.142857 0.000000 0.285714
v 0.000000 0.000000 0.285714
v -0.142857 0.000000 0.285714
v -0.285714 0.000000 0.285714
v -0.428571 0.000000 0.285714
v -0.571429 0.000000 0.285714
v -0.714286 0.000000 0.285714
v -0.857143 0.000000 0.285714
v 0.857143 0.000000 0.142857
v 0.714286 0.000000 0.142857
v 0.571429 0.000000 0.142857
v 0.428571 0.000000 0.142857
v 0.285714 0.000000 0.142857
v 0.142857 0.000000 0.142857
v 0.000000 0.000000 0.142857
v -0.142857 0.000000 0.142857
v -0.285714 0.000000 0.142857
v -0.428571 0.000000 0.142857
v -0.571429 0.000000 0.142857
v -0.714286 0.000000 0.142857
v -0.857143 0.000000 0.142857
v 0.857143 0.000000 0.000000
v 0.714286 0.000000 0.000000
v 0.571429 0.000000 0.000000
v 0.428571 0.000000 0.000000
v 0.285714 0.000000 0.000000
v 0.142857 0.000000 0.000000
v 0.000000 0.000000 0.000000
v -0.142857 0.000000 -0.000000
v -0.285714 0.000000 -0.000000
v -0.428571 0.000000 -0.000000
v -0.571429 0.000000 -0.000000
v -0.714286 0.000000 -0.000000
v -0.857143 0.000000 -0.000000
v 0.857143 0.000000 -0.142857
v 0.714286 0.000000 -0.142857
v 0.571429 0.000000 -0.142857
v 0.428571 0.000000 -0.142857
v 0.285714 0.000000 -0.142857
v 0.142857 0.000000 -0.142857
v 0.000000 0.000000 -0.142857
v -0.142857 0.000000 -0.142857
v -0.285714 0.000000 -0.142857
v -0.428571 0.000000 -0.142857
v -0.571429 0.000000 -0.142857
v -0.714286 0.000000 -0.142857
v -0.857143 0.000000 -0.142857
v 0.857143 0.000000 -0.285714
v 0.714286 0.000000 -0.285714
v 0.571429 0.000000 -0.285714
v 0.428571 0.000000 -0.285714
v 0.285714 0.000000 -0.285714
v 0.142857 0.000000 -0.285714
v 0.000000 0.000000 -0.285714
v -0.142857 0.000000 -0.285714
v -0.285714 0.000000 -0.285714
v -0.428571 0.000000 -0.285714
v -0.571429 0.000000 -0.285714
v -0.714286 0.000000 -0.285714
v -0.857143 0.000000 -0.285714
v 0.857143 0.000000 -0.428571
v 0.714286 0.000000 -0.428571
v 0.571429 0.000000 -0.428571
v 0.428571 0.000000 -0.428571
v 0.285714 0.000000 -0.428571
v 0.142857 0.000000 -0.428571
v 0.000000 0.000000 -0.428571
v -0.142857 0.000000 -0.428571
v -0.285714 0.000000 -0.428571
v -0.428571 0.000000 -0.428571
v -0.571429 0.000000 -0.428571
v -0.714286 0.000000 -0.428571
v -0.857143 0.000000 -0.428571
v 0.857143 0.000000 -0.571429
v 0.714286 0.000000 -0.571429
v 0.571429 0.000000 -0.571429
v 0.428571 0.000000 -0.571429
v 0.285714 0.000000 -0.571429
v 0.142857 0.000000 -0.571429
v 0.000000 0.000000 -0.571429
v -0.142857 0.000000 -0.571429
v -0.285714 0.000000 -0.571429
v -0.428571 0.000000 -0.571429
v -0.571429 0.000000 -0.571429
v -0.714286 0.000000 -0.571429
v -0.857143 0.000000 -0.571429
v 0.857143 0.000000 -0.714286
v 0.714286 0.000000 -0.714286
v 0.571429 0.000000 -0.714286
v 0.428571 0.000000 -0.714286
v 0.285714 0.000000 -0.714286
v 0.142857 0.000000 -0.714286
v 0.000000 0.000000 -0.714286
v -0.142857 0.000000 -0.714286
v -0.285714 0.000000 -0.714286
v -0.428571 0.000000 -0.714286
v -0.571429 0.000000 -0.714286
v -0.714286 0.000000 -0.714286
v -0.857143 0.000000 -0.714286
v 0.857143 0.000000 -0.857143
v 0.714286 0.000000 -0.857143
v 0.571429 0.000000 -0.857143
v 0.428571 0.000000 -0.857143
v 0.285714 0.000000 -0.857143
v 0.142857 0.000000 -0.857143
v 0.000000 0.000000 -0.857143
v -0.142857 0.000000 -0.857143
v -0.285714 0.000000 -0.857143
v -0.428571 0.000000 -0.857143
v -0.571429 0.000000 -0.857143
v -0.714286 0.000000 -0.857143
v -0.857143 0.000000 -0.857143
vt 0.999900 0.928484
vt 0.928486 0.999899
vt 0.928486 0.928484
vt 0.999899 0.000100
vt 0.928485 0.071514
vt 0.928484 0.000100
vt 0.999899 0.071514
vt 0.928485 0.142929
vt 0.999899 0.142928
vt 0.928485 0.214343
vt 0.999899 0.214343
vt 0.928485 0.285757
vt 0.999899 0.285757
vt 0.928485 0.357171
vt 0.999899 0.357171
vt 0.928485 0.428585
vt 0.999899 0.428585
vt 0.928485 0.500000
vt 0.999900 0.500000
vt 0.928485 0.571414
vt 0.999900 0.571414
vt 0.928486 0.642828
vt 0.999900 0.642828
vt 0.928486 0.714242
vt 0.999900 0.714242
vt 0.928486 0.785656
vt 0.999900 0.785656
vt 0.928486 0.857070
vt 0.999900 0.857070
vt 0.071517 0.857072
vt 0.000103 0.928486
vt 0.000103 0.857072
vt 0.142931 0.857072
vt 0.071517 0.928486
vt 0.214345 0.857071
vt 0.142931 0.928486
vt 0.285759 0.857071
vt 0.214345 0.928486
vt 0.357173 0.857071
vt 0.285759 0.928485
vt 0.428587 0.857071
vt 0.357173 0.928485
vt 0.500001 0.857071
vt 0.428587 0.928485
vt 0.571415 0.857071
vt 0.500001 0.928485
vt 0.642829 0.857071
vt 0.571415 0.928485
vt 0.714243 0.857071
vt 0.642829 0.928485
vt 0.785657 0.857071
vt 0.714243 0.928485
vt 0.857072 0.857070
vt 0.785658 0.928485
vt 0.857072 0.928485
vt 0.000103 0.785658
vt 0.142931 0.785658
vt 0.071517 0.785658
vt 0.214345 0.785657
vt 0.285759 0.785657
vt 0.357173 0.785657
vt 0.428587 0.785657
vt 0.500001 0.785657
vt 0.571415 0.785657
vt 0.642829 0.785657
vt 0.714243 0.785657
vt 0.785657 0.785656
vt 0.857071 0.785656
vt 0.071517 0.714244
vt 0.000102 0.714244
vt 0.142931 0.714244
vt 0.285759 0.714243
vt 0.214345 0.714243
vt 0.357173 0.714243
vt 0.428587 0.714243
vt 0.500001 0.714243
vt 0.571415 0.714243
vt 0.642829 0.714242
vt 0.714243 0.714242
vt 0.785657 0.714242
vt 0.857071 0.714242
vt 0.071516 0.642830
vt 0.000102 0.642830
vt 0.142930 0.642829
vt 0.214344 0.642829
vt 0.285758 0.642829
vt 0.357173 0.642829
vt 0.428587 0.642829
vt 0.500001 0.642829
vt 0.571415 0.642828
vt 0.642829 0.642828
vt 0.714243 0.642828
vt 0.785657 0.642828
vt 0.857071 0.642828
vt 0.071516 0.571416
vt 0.000102 0.571416
vt 0.142930 0.571415
vt 0.214344 0.571415
vt 0.357172 0.571415
vt 0.285758 0.571415
vt 0.428586 0.571415
vt 0.500001 0.571415
vt 0.571415 0.571414
vt 0.642829 0.571414
vt 0.714243 0.571414
vt 0.785657 0.571414
vt 0.857071 0.571414
vt 0.071516 0.500002
vt 0.000102 0.500002
vt 0.142930 0.500001
vt 0.214344 0.500001
vt 0.285758 0.500001
vt 0.357172 0.500001
vt 0.428586 0.500001
vt 0.500000 0.500000
vt 0.571415 0.500000
vt 0.642829 0.500000
vt 0.714243 0.500000
vt 0.785657 0.500000
vt 0.857071 0.500000
vt 0.071516 0.428587
vt 0.000102 0.428588
vt 0.142930 0.428587
vt 0.214344 0.428587
vt 0.285758 0.428587
vt 0.428586 0.428586
vt 0.357172 0.428587
vt 0.500000 0.428586
vt 0.571414 0.428586
vt 0.642829 0.428586
vt 0.714243 0.428586
vt 0.785657 0.428586
vt 0.857071 0.428586
vt 0.071515 0.357173
vt 0.000101 0.357174
vt 0.142930 0.357173
vt 0.214344 0.357173
vt 0.285758 0.357173
vt 0.428586 0.357172
vt 0.357172 0.357173
vt 0.500000 0.357172
vt 0.571414 0.357172
vt 0.642828 0.357172
vt 0.714243 0.357172
vt 0.785657 0.357172
vt 0.857071 0.357171
vt 0.071515 0.285759
vt 0.000101 0.285760
vt 0.142929 0.285759
vt 0.214343 0.285759
vt 0.285757 0.285759
vt 0.357172 0.285758
vt 0.428586 0.285758
vt 0.500000 0.285758
vt 0.571414 0.285758
vt 0.642828 0.285758
vt 0.714242 0.285757
vt 0.785657 0.285757
vt 0.857071 0.285757
vt 0.071515 0.214345
vt 0.000101 0.214345
vt 0.142929 0.214345
vt 0.285757 0.214345
vt 0.214343 0.214345
vt 0.357171 0.214344
vt 0.428586 0.214344
vt 0.500000 0.214344
vt 0.571414 0.214344
vt 0.642828 0.214343
vt 0.714242 0.214343
vt 0.785657 0.214343
vt 0.857071 0.214343
vt 0.071515 0.142931
vt 0.000101 0.142931
vt 0.214343 0.142931
vt 0.142929 0.142931
vt 0.285757 0.142930
vt 0.357171 0.142930
vt 0.428585 0.142930
vt 0.500000 0.142930
vt 0.571414 0.142929
vt 0.642828 0.142929
vt 0.714242 0.142929
vt 0.785656 0.142929
vt 0.857071 0.142929
vt 0.071514 0.071517
vt 0.000100 0.071517
vt 0.142929 0.071517
vt 0.214343 0.071516
vt 0.285757 0.071516
vt 0.357171 0.071516
vt 0.428585 0.071516
vt 0.499999 0.071516
vt 0.571414 0.071515
vt 0.642828 0.071515
vt 0.714242 0.071515
vt 0.785656 0.071515
vt 0.857070 0.071514
vt 0.071514 0.000103
vt 0.000100 0.000103
vt 0.142928 0.000103
vt 0.214342 0.000102
vt 0.285756 0.000102
vt 0.357171 0.000102
vt 0.428585 0.000102
vt 0.499999 0.000101
vt 0.571413 0.000101
vt 0.642827 0.000101
vt 0.714242 0.000101
vt 0.785656 0.000100
vt 0.857070 0.000100
vt 0.000103 0.999900
vt 0.071517 0.999900
vt 0.142931 0.999900
vt 0.214345 0.999900
vt 0.285759 0.999899
vt 0.357173 0.999899
vt 0.428587 0.999899
vt 0.500001 0.999899
vt 0.571415 0.999899
vt 0.642829 0.999899
vt 0.714244 0.999899
vt 0.785658 0.999899
vt 0.857072 0.999899
vt 0.999900 0.999899
vn 0.0000 1.0000 0.0000
usemtl None
s off
f 30/1/1 44/2/1 213/3/1
f 2/4/1 57/5/1 43/6/1
f 18/7/1 70/8/1 57/5/1
f 19/9/1 83/10/1 70/8/1
f 20/11/1 96/12/1 83/10/1
f 21/13/1 109/14/1 96/12/1
f 22/15/1 122/16/1 109/14/1
f 23/17/1 135/18/1 122/16/1
f 24/19/1 148/20/1 135/18/1
f 25/21/1 161/22/1 148/20/1
f 26/23/1 174/24/1 161/22/1
f 27/25/1 187/26/1 174/24/1
f 28/27/1 200/28/1 187/26/1
f 29/29/1 213/3/1 200/28/1
f 212/30/1 5/31/1 6/32/1
f 211/33/1 225/34/1 212/30/1
f 210/35/1 224/36/1 211/33/1
f 209/37/1 223/38/1 210/35/1
f 208/39/1 222/40/1 209/37/1
f 207/41/1 221/42/1 208/39/1
f 206/43/1 220/44/1 207/41/1
f 205/45/1 219/46/1 206/43/1
f 204/47/1 218/48/1 205/45/1
f 203/49/1 217/50/1 204/47/1
f 202/51/1 216/52/1 203/49/1
f 201/53/1 215/54/1 202/51/1
f 200/28/1 214/55/1 201/53/1
f 7/56/1 212/30/1 6/32/1
f 198/57/1 212/30/1 199/58/1
f 197/59/1 211/33/1 198/57/1
f 196/60/1 210/35/1 197/59/1
f 195/61/1 209/37/1 196/60/1
f 194/62/1 208/39/1 195/61/1
f 193/63/1 207/41/1 194/62/1
f 192/64/1 206/43/1 193/63/1
f 191/65/1 205/45/1 192/64/1
f 190/66/1 204/47/1 191/65/1
f 189/67/1 203/49/1 190/66/1
f 188/68/1 202/51/1 189/67/1
f 187/26/1 201/53/1 188/68/1
f 186/69/1 7/56/1 8/70/1
f 185/71/1 199/58/1 186/69/1
f 185/71/1 197/59/1 198/57/1
f 183/72/1 197/59/1 184/73/1
f 182/74/1 196/60/1 183/72/1
f 181/75/1 195/61/1 182/74/1
f 180/76/1 194/62/1 181/75/1
f 179/77/1 193/63/1 180/76/1
f 178/78/1 192/64/1 179/77/1
f 177/79/1 191/65/1 178/78/1
f 176/80/1 190/66/1 177/79/1
f 175/81/1 189/67/1 176/80/1
f 174/24/1 188/68/1 175/81/1
f 173/82/1 8/70/1 9/83/1
f 172/84/1 186/69/1 173/82/1
f 171/85/1 185/71/1 172/84/1
f 170/86/1 184/73/1 171/85/1
f 169/87/1 183/72/1 170/86/1
f 168/88/1 182/74/1 169/87/1
f 167/89/1 181/75/1 168/88/1
f 166/90/1 180/76/1 167/89/1
f 165/91/1 179/77/1 166/90/1
f 164/92/1 178/78/1 165/91/1
f 163/93/1 177/79/1 164/92/1
f 162/94/1 176/80/1 163/93/1
f 161/22/1 175/81/1 162/94/1
f 160/95/1 9/83/1 10/96/1
f 159/97/1 173/82/1 160/95/1
f 159/97/1 171/85/1 172/84/1
f 158/98/1 170/86/1 171/85/1
f 156/99/1 170/86/1 157/100/1
f 155/101/1 169/87/1 156/99/1
f 154/102/1 168/88/1 155/101/1
f 153/103/1 167/89/1 154/102/1
f 152/104/1 166/90/1 153/103/1
f 151/105/1 165/91/1 152/104/1
f 150/106/1 164/92/1 151/105/1
f 149/107/1 163/93/1 150/106/1
f 148/20/1 162/94/1 149/107/1
f 147/108/1 10/96/1 11/109/1
f 146/110/1 160/95/1 147/108/1
f 145/111/1 159/97/1 146/110/1
f 144/112/1 158/98/1 145/111/1
f 143/113/1 157/100/1 144/112/1
f 142/114/1 156/99/1 143/113/1
f 141/115/1 155/101/1 142/114/1
f 140/116/1 154/102/1 141/115/1
f 139/117/1 153/103/1 140/116/1
f 138/118/1 152/104/1 139/117/1
f 137/119/1 151/105/1 138/118/1
f 136/120/1 150/106/1 137/119/1
f 135/18/1 149/107/1 136/120/1
f 134/121/1 11/109/1 12/122/1
f 133/123/1 147/108/1 134/121/1
f 132/124/1 146/110/1 133/123/1
f 131/125/1 145/111/1 132/124/1
f 131/125/1 143/113/1 144/112/1
f 129/126/1 143/113/1 130/127/1
f 128/128/1 142/114/1 129/126/1
f 127/129/1 141/115/1 128/128/1
f 126/130/1 140/116/1 127/129/1
f 125/131/1 139/117/1 126/130/1
f 124/132/1 138/118/1 125/131/1
f 123/133/1 137/119/1 124/132/1
f 122/16/1 136/120/1 123/133/1
f 121/134/1 12/122/1 13/135/1
f 120/136/1 134/121/1 121/134/1
f 119/137/1 133/123/1 120/136/1
f 118/138/1 132/124/1 119/137/1
f 118/138/1 130/127/1 131/125/1
f 116/139/1 130/127/1 117/140/1
f 115/141/1 129/126/1 116/139/1
f 114/142/1 128/128/1 115/141/1
f 113/143/1 127/129/1 114/142/1
f 112/144/1 126/130/1 113/143/1
f 111/145/1 125/131/1 112/144/1
f 110/146/1 124/132/1 111/145/1
f 109/14/1 123/133/1 110/146/1
f 108/147/1 13/135/1 14/148/1
f 107/149/1 121/134/1 108/147/1
f 106/150/1 120/136/1 107/149/1
f 105/151/1 119/137/1 106/150/1
f 104/152/1 118/138/1 105/151/1
f 103/153/1 117/140/1 104/152/1
f 102/154/1 116/139/1 103/153/1
f 101/155/1 115/141/1 102/154/1
f 100/156/1 114/142/1 101/155/1
f 99/157/1 113/143/1 100/156/1
f 98/158/1 112/144/1 99/157/1
f 97/159/1 111/145/1 98/158/1
f 96/12/1 110/146/1 97/159/1
f 95/160/1 14/148/1 15/161/1
f 95/160/1 107/149/1 108/147/1
f 94/162/1 106/150/1 107/149/1
f 92/163/1 106/150/1 93/164/1
f 91/165/1 105/151/1 92/163/1
f 90/166/1 104/152/1 91/165/1
f 89/167/1 103/153/1 90/166/1
f 88/168/1 102/154/1 89/167/1
f 87/169/1 101/155/1 88/168/1
f 86/170/1 100/156/1 87/169/1
f 85/171/1 99/157/1 86/170/1
f 84/172/1 98/158/1 85/171/1
f 83/10/1 97/159/1 84/172/1
f 82/173/1 15/161/1 16/174/1
f 82/173/1 94/162/1 95/160/1
f 80/175/1 94/162/1 81/176/1
f 79/177/1 93/164/1 80/175/1
f 78/178/1 92/163/1 79/177/1
f 77/179/1 91/165/1 78/178/1
f 76/180/1 90/166/1 77/179/1
f 75/181/1 89/167/1 76/180/1
f 74/182/1 88/168/1 75/181/1
f 73/183/1 87/169/1 74/182/1
f 72/184/1 86/170/1 73/183/1
f 71/185/1 85/171/1 72/184/1
f 70/8/1 84/172/1 71/185/1
f 69/186/1 16/174/1 17/187/1
f 68/188/1 82/173/1 69/186/1
f 67/189/1 81/176/1 68/188/1
f 66/190/1 80/175/1 67/189/1
f 65/191/1 79/177/1 66/190/1
f 64/192/1 78/178/1 65/191/1
f 63/193/1 77/179/1 64/192/1
f 62/194/1 76/180/1 63/193/1
f 61/195/1 75/181/1 62/194/1
f 60/196/1 74/182/1 61/195/1
f 59/197/1 73/183/1 60/196/1
f 58/198/1 72/184/1 59/197/1
f 57/5/1 71/185/1 58/198/1
f 31/199/1 17/187/1 1/200/1
f 32/201/1 69/186/1 31/199/1
f 33/202/1 68/188/1 32/201/1
f 34/203/1 67/189/1 33/202/1
f 35/204/1 66/190/1 34/203/1
f 36/205/1 65/191/1 35/204/1
f 37/206/1 64/192/1 36/205/1
f 38/207/1 63/193/1 37/206/1
f 39/208/1 62/194/1 38/207/1
f 40/209/1 61/195/1 39/208/1
f 41/210/1 60/196/1 40/209/1
f 42/211/1 59/197/1 41/210/1
f 43/6/1 58/198/1 42/211/1
f 225/34/1 3/212/1 5/31/1
f 224/36/1 56/213/1 225/34/1
f 223/38/1 55/214/1 224/36/1
f 222/40/1 54/215/1 223/38/1
f 221/42/1 53/216/1 222/40/1
f 220/44/1 52/217/1 221/42/1
f 219/46/1 51/218/1 220/44/1
f 218/48/1 50/219/1 219/46/1
f 217/50/1 49/220/1 218/48/1
f 216/52/1 48/221/1 217/50/1
f 215/54/1 47/222/1 216/52/1
f 214/55/1 46/223/1 215/54/1
f 213/3/1 45/224/1 214/55/1
f 30/1/1 4/225/1 44/2/1
f 2/4/1 18/7/1 57/5/1
f 18/7/1 19/9/1 70/8/1
f 19/9/1 20/11/1 83/10/1
f 20/11/1 21/13/1 96/12/1
f 21/13/1 22/15/1 109/14/1
f 22/15/1 23/17/1 122/16/1
f 23/17/1 24/19/1 135/18/1
f 24/19/1 25/21/1 148/20/1
f 25/21/1 26/23/1 161/22/1
f 26/23/1 27/25/1 174/24/1
f 27/25/1 28/27/1 187/26/1
f 28/27/1 29/29/1 200/28/1
f 29/29/1 30/1/1 213/3/1
f 212/30/1 225/34/1 5/31/1
f 211/33/1 224/36/1 225/34/1
f 210/35/1 223/38/1 224/36/1
f 209/37/1 222/40/1 223/38/1
f 208/39/1 221/42/1 222/40/1
f 207/41/1 220/44/1 221/42/1
f 206/43/1 219/46/1 220/44/1
f 205/45/1 218/48/1 219/46/1
f 204/47/1 217/50/1 218/48/1
f 203/49/1 216/52/1 217/50/1
f 202/51/1 215/54/1 216/52/1
f 201/53/1 214/55/1 215/54/1
f 200/28/1 213/3/1 214/55/1
f 7/56/1 199/58/1 212/30/1
f 198/57/1 211/33/1 212/30/1
f 197/59/1 210/35/1 211/33/1
f 196/60/1 209/37/1 210/35/1
f 195/61/1 208/39/1 209/37/1
f 194/62/1 207/41/1 208/39/1
f 193/63/1 206/43/1 207/41/1
f 192/64/1 205/45/1 206/43/1
f 191/65/1 204/47/1 205/45/1
f 190/66/1 203/49/1 204/47/1
f 189/67/1 202/51/1 203/49/1
f 188/68/1 201/53/1 202/51/1
f 187/26/1 200/28/1 201/53/1
f 186/69/1 199/58/1 7/56/1
f 185/71/1 198/57/1 199/58/1
f 185/71/1 184/73/1 197/59/1
f 183/72/1 196/60/1 197/59/1
f 182/74/1 195/61/1 196/60/1
f 181/75/1 194/62/1 195/61/1
f 180/76/1 193/63/1 194/62/1
f 179/77/1 192/64/1 193/63/1
f 178/78/1 191/65/1 192/64/1
f 177/79/1 190/66/1 191/65/1
f 176/80/1 189/67/1 190/66/1
f 175/81/1 188/68/1 189/67/1
f 174/24/1 187/26/1 188/68/1
f 173/82/1 186/69/1 8/70/1
f 172/84/1 185/71/1 186/69/1
f 171/85/1 184/73/1 185/71/1
f 170/86/1 183/72/1 184/73/1
f 169/87/1 182/74/1 183/72/1
f 168/88/1 181/75/1 182/74/1
f 167/89/1 180/76/1 181/75/1
f 166/90/1 179/77/1 180/76/1
f 165/91/1 178/78/1 179/77/1
f 164/92/1 177/79/1 178/78/1
f 163/93/1 176/80/1 177/79/1
f 162/94/1 175/81/1 176/80/1
f 161/22/1 174/24/1 175/81/1
f 160/95/1 173/82/1 9/83/1
f 159/97/1 172/84/1 173/82/1
f 159/97/1 158/98/1 171/85/1
f 158/98/1 157/100/1 170/86/1
f 156/99/1 169/87/1 170/86/1
f 155/101/1 168/88/1 169/87/1
f 154/102/1 167/89/1 168/88/1
f 153/103/1 166/90/1 167/89/1
f 152/104/1 165/91/1 166/90/1
f 151/105/1 164/92/1 165/91/1
f 150/106/1 163/93/1 164/92/1
f 149/107/1 162/94/1 163/93/1
f 148/20/1 161/22/1 162/94/1
f 147/108/1 160/95/1 10/96/1
f 146/110/1 159/97/1 160/95/1
f 145/111/1 158/98/1 159/97/1
f 144/112/1 157/100/1 158/98/1
f 143/113/1 156/99/1 157/100/1
f 142/114/1 155/101/1 156/99/1
f 141/115/1 154/102/1 155/101/1
f 140/116/1 153/103/1 154/102/1
f 139/117/1 152/104/1 153/103/1
f 138/118/1 151/105/1 152/104/1
f 137/119/1 150/106/1 151/105/1
f 136/120/1 149/107/1 150/106/1
f 135/18/1 148/20/1 149/107/1
f 134/121/1 147/108/1 11/109/1
f 133/123/1 146/110/1 147/108/1
f 132/124/1 145/111/1 146/110/1
f 131/125/1 144/112/1 145/111/1
f 131/125/1 130/127/1 143/113/1
f 129/126/1 142/114/1 143/113/1
f 128/128/1 141/115/1 142/114/1
f 127/129/1 140/116/1 141/115/1
f 126/130/1 139/117/1 140/116/1
f 125/131/1 138/118/1 139/117/1
f 124/132/1 137/119/1 138/118/1
f 123/133/1 136/120/1 137/119/1
f 122/16/1 135/18/1 136/120/1
f 121/134/1 134/121/1 12/122/1
f 120/136/1 133/123/1 134/121/1
f 119/137/1 132/124/1 133/123/1
f 118/138/1 131/125/1 132/124/1
f 118/138/1 117/140/1 130/127/1
f 116/139/1 129/126/1 130/127/1
f 115/141/1 128/128/1 129/126/1
f 114/142/1 127/129/1 128/128/1
f 113/143/1 126/130/1 127/129/1
f 112/144/1 125/131/1 126/130/1
f 111/145/1 124/132/1 125/131/1
f 110/146/1 123/133/1 124/132/1
f 109/14/1 122/16/1 123/133/1
f 108/147/1 121/134/1 13/135/1
f 107/149/1 120/136/1 121/134/1
f 106/150/1 119/137/1 120/136/1
f 105/151/1 118/138/1 119/137/1
f 104/152/1 117/140/1 118/138/1
f 103/153/1 116/139/1 117/140/1
f 102/154/1 115/141/1 116/139/1
f 101/155/1 114/142/1 115/141/1
f 100/156/1 113/143/1 114/142/1
f 99/157/1 112/144/1 113/143/1
f 98/158/1 111/145/1 112/144/1
f 97/159/1 110/146/1 111/145/1
f 96/12/1 109/14/1 110/146/1
f 95/160/1 108/147/1 14/148/1
f 95/160/1 94/162/1 107/149/1
f 94/162/1 93/164/1 106/150/1
f 92/163/1 105/151/1 106/150/1
f 91/165/1 104/152/1 105/151/1
f 90/166/1 103/153/1 104/152/1
f 89/167/1 102/154/1 103/153/1
f 88/168/1 101/155/1 102/154/1
f 87/169/1 100/156/1 101/155/1
f 86/170/1 99/157/1 100/156/1
f 85/171/1 98/158/1 99/157/1
f 84/172/1 97/159/1 98/158/1
f 83/10/1 96/12/1 97/159/1
f 82/173/1 95/160/1 15/161/1
f 82/173/1 81/176/1 94/162/1
f 80/175/1 93/164/1 94/162/1
f 79/177/1 92/163/1 93/164/1
f 78/178/1 91/165/1 92/163/1
f 77/179/1 90/166/1 91/165/1
f 76/180/1 89/167/1 90/166/1
f 75/181/1 88/168/1 89/167/1
f 74/182/1 87/169/1 88/168/1
f 73/183/1 86/170/1 87/169/1
f 72/184/1 85/171/1 86/170/1
f 71/185/1 84/172/1 85/171/1
f 70/8/1 83/10/1 84/172/1
f 69/186/1 82/173/1 16/174/1
f 68/188/1 81/176/1 82/173/1
f 67/189/1 80/175/1 81/176/1
f 66/190/1 79/177/1 80/175/1
f 65/191/1 78/178/1 79/177/1
f 64/192/1 77/179/1 78/178/1
f 63/193/1 76/180/1 77/179/1
f 62/194/1 75/181/1 76/180/1
f 61/195/1 74/182/1 75/181/1
f 60/196/1 73/183/1 74/182/1
f 59/197/1 72/184/1 73/183/1
f 58/198/1 71/185/1 72/184/1
f 57/5/1 70/8/1 71/185/1
f 31/199/1 69/186/1 17/187/1
f 32/201/1 68/188/1 69/186/1
f 33/202/1 67/189/1 68/188/1
f 34/203/1 66/190/1 67/189/1
f 35/204/1 65/191/1 66/190/1
f 36/205/1 64/192/1 65/191/1
f 37/206/1 63/193/1 64/192/1
f 38/207/1 62/194/1 63/193/1
f 39/208/1 61/195/1 62/194/1
f 40/209/1 60/196/1 61/195/1
f 41/210/1 59/197/1 60/196/1
f 42/211/1 58/198/1 59/197/1
f 43/6/1 57/5/1 58/198/1
f 225/34/1 56/213/1 3/212/1
f 224/36/1 55/214/1 56/213/1
f 223/38/1 54/215/1 55/214/1
f 222/40/1 53/216/1 54/215/1
f 221/42/1 52/217/1 53/216/1
f 220/44/1 51/218/1 52/217/1
f 219/46/1 50/219/1 51/218/1
f 218/48/1 49/220/1 50/219/1
f 217/50/1 48/221/1 49/220/1
f 216/52/1 47/222/1 48/221/1
f 215/54/1 46/223/1 47/222/1
f 214/55/1 45/224/1 46/223/1
f 213/3/1 44/2/1 45/224/1
