# Blender v2.79 (sub 0) OBJ File: 'saturn_min_poly.blend'
# www.blender.org
mtllib saturn_min_poly.mtl
o Icosphere
v 0.000000 -1.000000 0.000000
v 0.723600 -0.447215 0.525720
v -0.276385 -0.447215 0.850640
v -0.894425 -0.447215 0.000000
v -0.276385 -0.447215 -0.850640
v 0.723600 -0.447215 -0.525720
v 0.276385 0.447215 0.850640
v -0.723600 0.447215 0.525720
v -0.723600 0.447215 -0.525720
v 0.276385 0.447215 -0.850640
v 0.894425 0.447215 0.000000
v 0.000000 1.000000 0.000000
vt 0.265104 0.000000
vt 0.468796 0.276392
vt 0.319088 0.276393
vt 0.618502 0.276392
vt 0.169379 0.276393
vt 0.019671 0.276392
vt 0.768210 0.276392
vt 0.543649 0.723607
vt 0.393941 0.723608
vt 0.244233 0.723608
vt 0.094526 0.723608
vt 0.693358 0.723607
vt 0.843066 0.723608
vt 0.639374 1.000000
vt 0.992772 0.723608
vn 0.1876 -0.7947 0.5774
vn 0.6071 -0.7947 0.0000
vn -0.4911 -0.7947 0.3568
vn -0.4911 -0.7947 -0.3568
vn 0.1876 -0.7947 -0.5774
vn 0.9822 -0.1876 0.0000
vn 0.3035 -0.1876 0.9342
vn -0.7946 -0.1876 0.5774
vn -0.7946 -0.1876 -0.5774
vn 0.3035 -0.1876 -0.9342
vn 0.7946 0.1876 0.5774
vn -0.3035 0.1876 0.9342
vn -0.9822 0.1876 0.0000
vn -0.3035 0.1876 -0.9342
vn 0.7946 0.1876 -0.5774
vn 0.4911 0.7947 0.3568
vn -0.1876 0.7947 0.5774
vn -0.6071 0.7947 0.0000
vn -0.1876 0.7947 -0.5774
vn 0.4911 0.7947 -0.3568
usemtl None
s off
f 1/1/1 2/2/1 3/3/1
f 2/2/2 1/1/2 6/4/2
f 1/1/3 3/3/3 4/5/3
f 1/1/4 4/5/4 5/6/4
f 1/1/5 5/7/5 6/4/5
f 2/2/6 6/4/6 11/8/6
f 3/3/7 2/2/7 7/9/7
f 4/5/8 3/3/8 8/10/8
f 5/6/9 4/5/9 9/11/9
f 6/4/10 5/7/10 10/12/10
f 2/2/11 11/8/11 7/9/11
f 3/3/12 7/9/12 8/10/12
f 4/5/13 8/10/13 9/11/13
f 5/7/14 9/13/14 10/12/14
f 6/4/15 10/12/15 11/8/15
f 7/9/16 11/8/16 12/14/16
f 8/15/17 7/9/17 12/14/17
f 9/13/18 8/15/18 12/14/18
f 10/12/19 9/13/19 12/14/19
f 11/8/20 10/12/20 12/14/20
o Plane_Plane.001
v -2.413951 0.000000 2.413951
v 2.413951 0.000000 2.413951
v -2.413951 0.000000 -2.413951
v 2.413951 0.000000 -2.413951
vt 1.011280 -0.011280
vt -0.011280 1.011280
vt -0.011280 -0.011280
vt 1.011280 1.011280
vn 0.0000 1.0000 0.0000
usemtl None_saturn_rings.png
s off
f 14/16/21 15/17/21 13/18/21
f 14/16/21 16/19/21 15/17/21
